<svg id="visual" viewBox="0 0 900 600" width="900" height="600" xmlns="http://www.w3.org/2000/svg" xmlns:xlink="http://www.w3.org/1999/xlink" version="1.1"><rect x="0" y="0" width="900" height="600" fill="#000000"></rect><path d="M0 285L21.5 283.2C43 281.3 86 277.7 128.8 303.3C171.7 329 214.3 384 257.2 364.5C300 345 343 251 385.8 212.5C428.7 174 471.3 191 514.2 209.7C557 228.3 600 248.7 642.8 243.8C685.7 239 728.3 209 771.2 230.2C814 251.3 857 323.7 878.5 359.8L900 396L900 601L878.5 601C857 601 814 601 771.2 601C728.3 601 685.7 601 642.8 601C600 601 557 601 514.2 601C471.3 601 428.7 601 385.8 601C343 601 300 601 257.2 601C214.3 601 171.7 601 128.8 601C86 601 43 601 21.5 601L0 601Z" fill="#ffffff" stroke-linecap="round" stroke-linejoin="miter"></path></svg>