<svg id="visual" viewBox="0 0 900 600" width="900" height="600" xmlns="http://www.w3.org/2000/svg" xmlns:xlink="http://www.w3.org/1999/xlink" version="1.1"><rect x="0" y="0" width="900" height="600" fill="#000000"></rect><path d="M0 295L25 295C50 295 100 295 150 273.2C200 251.3 250 207.7 300 191.5C350 175.3 400 186.7 450 230.2C500 273.7 550 349.3 600 387.8C650 426.3 700 427.7 750 388.2C800 348.7 850 268.3 875 228.2L900 188L900 0L875 0C850 0 800 0 750 0C700 0 650 0 600 0C550 0 500 0 450 0C400 0 350 0 300 0C250 0 200 0 150 0C100 0 50 0 25 0L0 0Z" fill="#fefeff" stroke-linecap="round" stroke-linejoin="miter"></path></svg>