<svg id="visual" viewBox="0 0 900 200" width="900" height="200" xmlns="http://www.w3.org/2000/svg" xmlns:xlink="http://www.w3.org/1999/xlink" version="1.1"><rect x="0" y="0" width="900" height="200" fill="#000000"></rect><path d="M0 93L12.5 95.3C25 97.7 50 102.3 75 116C100 129.7 125 152.3 150 163.7C175 175 200 175 225 161.2C250 147.3 275 119.7 300 116.3C325 113 350 134 375 142.8C400 151.7 425 148.3 450 141.8C475 135.3 500 125.7 525 132.3C550 139 575 162 600 166.5C625 171 650 157 675 145.5C700 134 725 125 750 122.8C775 120.7 800 125.3 825 133.5C850 141.7 875 153.3 887.5 159.2L900 165L900 201L887.5 201C875 201 850 201 825 201C800 201 775 201 750 201C725 201 700 201 675 201C650 201 625 201 600 201C575 201 550 201 525 201C500 201 475 201 450 201C425 201 400 201 375 201C350 201 325 201 300 201C275 201 250 201 225 201C200 201 175 201 150 201C125 201 100 201 75 201C50 201 25 201 12.5 201L0 201Z" fill="#ffffff" stroke-linecap="round" stroke-linejoin="miter"></path></svg>