<svg id="visual" viewBox="0 0 900 600" width="900" height="600" xmlns="http://www.w3.org/2000/svg" xmlns:xlink="http://www.w3.org/1999/xlink" version="1.1"><rect x="0" y="0" width="900" height="600" fill="#000000"></rect><path d="M0 303L25 303C50 303 100 303 150 324.8C200 346.7 250 390.3 300 406.5C350 422.7 400 411.3 450 367.8C500 324.3 550 248.7 600 210.2C650 171.7 700 170.3 750 209.8C800 249.3 850 329.7 875 369.8L900 410L900 601L875 601C850 601 800 601 750 601C700 601 650 601 600 601C550 601 500 601 450 601C400 601 350 601 300 601C250 601 200 601 150 601C100 601 50 601 25 601L0 601Z" fill="#fefeff" stroke-linecap="round" stroke-linejoin="miter"></path></svg>